ffmpeg version 8.1.1-full_build-www.gyan.dev Copyright (c) 2000-2026 the FFmpeg developers
  built with gcc 15.2.0 (Rev13, Built by MSYS2 project)
  configuration: --enable-gpl --enable-version3 --enable-static --disable-w32threads --disable-autodetect --enable-cairo --enable-fontconfig --enable-iconv --enable-gnutls --enable-lcms2 --enable-libxml2 --enable-gmp --enable-bzlib --enable-lzma --enable-libsnappy --enable-zlib --enable-librist --enable-libsrt --enable-libssh --enable-libzmq --enable-avisynth --enable-libbluray --enable-libcaca --enable-libdvdnav --enable-libdvdread --enable-sdl2 --enable-libaribb24 --enable-libaribcaption --enable-libdav1d --enable-libdavs2 --enable-libopenjpeg --enable-libquirc --enable-libuavs3d --enable-libxevd --enable-libzvbi --enable-liboapv --enable-libqrencode --enable-librav1e --enable-libsvtav1 --enable-libvvenc --enable-libwebp --enable-libx264 --enable-libx265 --enable-libxavs2 --enable-libxeve --enable-libxvid --enable-libaom --enable-libjxl --enable-libsvtjpegxs --enable-libvpx --enable-mediafoundation --enable-libass --enable-frei0r --enable-libfreetype --enable-libfribidi --enable-libharfbuzz --enable-liblensfun --enable-libvidstab --enable-libvmaf --enable-libzimg --enable-amf --enable-cuda-llvm --enable-cuvid --enable-dxva2 --enable-d3d11va --enable-d3d12va --enable-ffnvcodec --enable-libvpl --enable-nvdec --enable-nvenc --enable-vaapi --enable-libshaderc --enable-vulkan --enable-libplacebo --enable-opencl --enable-libcdio --enable-openal --enable-libgme --enable-libmodplug --enable-libopenmpt --enable-libopencore-amrwb --enable-libmp3lame --enable-libshine --enable-libtheora --enable-libtwolame --enable-libvo-amrwbenc --enable-libcodec2 --enable-libilbc --enable-libgsm --enable-liblc3 --enable-libopencore-amrnb --enable-libopus --enable-libspeex --enable-libvorbis --enable-ladspa --enable-libbs2b --enable-libflite --enable-libmysofa --enable-librubberband --enable-libsoxr --enable-chromaprint --enable-whisper
  libavutil      60. 26.101 / 60. 26.101
  libavcodec     62. 28.101 / 62. 28.101
  libavformat    62. 12.101 / 62. 12.101
  libavdevice    62.  3.101 / 62.  3.101
  libavfilter    11. 14.101 / 11. 14.101
  libswscale      9.  5.101 /  9.  5.101
  libswresample   6.  3.101 /  6.  3.101
Input #0, mov,mp4,m4a,3gp,3g2,mj2, from 'D:\PythonProjects\viral-cutter-ai\benchmarks\runs\20260510_171633\roman_giertych_commentary\compare_podcast\cuts_raw\segment_1_19-09_66_20-01_48.mp4':
  Metadata:
    major_brand     : isom
    minor_version   : 512
    compatible_brands: isomiso2avc1mp41
    encoder         : Lavf62.12.101
  Duration: 00:00:51.84, start: 0.000000, bitrate: 3094 kb/s
  Stream #0:0[0x1](und): Video: h264 (High) (avc1 / 0x31637661), yuvj420p(pc, bt470bg/unknown/unknown, progressive), 1080x1920 [SAR 1:1 DAR 9:16], 2890 kb/s, 60 fps, 60 tbr, 15360 tbn, start 0.033008 (default)
    Metadata:
      handler_name    : VideoHandler
      encoder         : Lavc62.28.101 libx264
  Stream #0:1[0x2](eng): Audio: aac (LC) (mp4a / 0x6134706D), 48000 Hz, stereo, fltp, 194 kb/s (default)
    Metadata:
      handler_name    : SoundHandler
[Parsed_ass_0 @ 000002173a64ccc0] libass API version: 0x1704000
[Parsed_ass_0 @ 000002173a64ccc0] libass source: commit: 0.17.4-27-g1cbba0a8818c83495114b3c2b5730410eecbdb2c
[Parsed_ass_0 @ 000002173a64ccc0] Shaper: FriBidi 1.0.16 (SIMPLE) HarfBuzz-ng 14.2.0 (COMPLEX)
[Parsed_ass_0 @ 000002173a64ccc0] Using font provider directwrite (with GDI)
[Parsed_ass_0 @ 000002173a64ccc0] Added subtitle file: 'D:\PythonProjects\viral-cutter-ai\benchmarks\runs\20260510_171633\roman_giertych_commentary\compare_podcast\cuts_raw\segment_1_19-09_66_20-01_48.ass' (7 styles, 20 events)
Stream mapping:
  Stream #0:0 -> #0:0 (h264 (native) -> h264 (libx264))
  Stream #0:1 -> #0:1 (aac (native) -> aac (native))
Press [q] to stop, [?] for help
[Parsed_ass_0 @ 000002173a64b980] libass API version: 0x1704000
[Parsed_ass_0 @ 000002173a64b980] libass source: commit: 0.17.4-27-g1cbba0a8818c83495114b3c2b5730410eecbdb2c
[Parsed_ass_0 @ 000002173a64b980] Shaper: FriBidi 1.0.16 (SIMPLE) HarfBuzz-ng 14.2.0 (COMPLEX)
[Parsed_ass_0 @ 000002173a64b980] Using font provider directwrite (with GDI)
[Parsed_ass_0 @ 000002173a64b980] Added subtitle file: 'D:\PythonProjects\viral-cutter-ai\benchmarks\runs\20260510_171633\roman_giertych_commentary\compare_podcast\cuts_raw\segment_1_19-09_66_20-01_48.ass' (7 styles, 20 events)
[Parsed_ass_0 @ 000002173a64b980] fontselect: (Arial Black, 700, 0) -> Arial-Black, 0, Arial-Black
[libx264 @ 000002173c5bcb00] using SAR=1/1
[libx264 @ 000002173c5bcb00] using cpu capabilities: MMX2 SSE2Fast SSSE3 SSE4.2 AVX FMA3 BMI2 AVX2 AVX512
[libx264 @ 000002173c5bcb00] profile High, level 4.2, 4:2:0, 8-bit
[libx264 @ 000002173c5bcb00] 264 - core 165 r3223 0480cb0 - H.264/MPEG-4 AVC codec - Copyleft 2003-2025 - http://www.videolan.org/x264.html - options: cabac=1 ref=3 deblock=1:0:0 analyse=0x3:0x113 me=hex subme=7 psy=1 psy_rd=1.00:0.00 mixed_ref=1 me_range=16 chroma_me=1 trellis=1 8x8dct=1 cqm=0 deadzone=21,11 fast_pskip=1 chroma_qp_offset=-2 threads=24 lookahead_threads=4 sliced_threads=0 nr=0 decimate=1 interlaced=0 bluray_compat=0 constrained_intra=0 bframes=3 b_pyramid=2 b_adapt=1 b_bias=0 direct=1 weightb=1 open_gop=0 weightp=2 keyint=250 keyint_min=25 scenecut=40 intra_refresh=0 rc_lookahead=40 rc=crf mbtree=1 crf=23.0 qcomp=0.60 qpmin=0 qpmax=69 qpstep=4 ip_ratio=1.40 aq=1:1.00
Output #0, mp4, to 'D:\PythonProjects\viral-cutter-ai\benchmarks\runs\20260510_171633\roman_giertych_commentary\compare_podcast\cuts_subtitles\segment_1_19-09_66_20-01_48.mp4':
  Metadata:
    major_brand     : isom
    minor_version   : 512
    compatible_brands: isomiso2avc1mp41
    encoder         : Lavf62.12.101
  Stream #0:0(und): Video: h264 (avc1 / 0x31637661), yuvj420p(pc, bt470bg/unknown/unknown, progressive), 1080x1920 [SAR 1:1 DAR 9:16], q=2-31, 60 fps, 15360 tbn (default)
    Metadata:
      encoder         : Lavc62.28.101 libx264
      handler_name    : VideoHandler
    Side data:
      CPB properties: bitrate max/min/avg: 0/0/0 buffer size: 0 vbv_delay: N/A
  Stream #0:1(eng): Audio: aac (LC) (mp4a / 0x6134706D), 48000 Hz, stereo, fltp, 192 kb/s (default)
    Metadata:
      encoder         : Lavc62.28.101 aac
      handler_name    : SoundHandler
[Parsed_ass_0 @ 000002173a64b980] fontselect: (Arial Black, 400, 0) -> Arial-Black, 0, Arial-Black
frame=  127 fps=0.0 q=31.0 size=     256KiB time=00:00:02.11 bitrate= 991.0kbits/s speed=4.09x elapsed=0:00:00.51    frame=  291 fps=280 q=31.0 size=    1280KiB time=00:00:04.85 bitrate=2162.1kbits/s speed=4.67x elapsed=0:00:01.03    frame=  428 fps=275 q=31.0 size=    2048KiB time=00:00:07.13 bitrate=2352.0kbits/s speed=4.58x elapsed=0:00:01.55    frame=  569 fps=275 q=31.0 size=    3072KiB time=00:00:09.48 bitrate=2653.7kbits/s speed=4.59x elapsed=0:00:02.06    frame=  754 fps=291 q=31.0 size=    3840KiB time=00:00:12.56 bitrate=2503.3kbits/s speed=4.86x elapsed=0:00:02.58    frame=  947 fps=306 q=31.0 size=    4608KiB time=00:00:15.78 bitrate=2391.7kbits/s speed=5.09x elapsed=0:00:03.09    frame= 1131 fps=313 q=31.0 size=    5120KiB time=00:00:18.85 bitrate=2225.1kbits/s speed=5.22x elapsed=0:00:03.61    frame= 1271 fps=308 q=31.0 size=    5888KiB time=00:00:21.18 bitrate=2277.0kbits/s speed=5.13x elapsed=0:00:04.12    frame= 1434 fps=308 q=31.0 size=    6400KiB time=00:00:23.90 bitrate=2193.7kbits/s speed=5.13x elapsed=0:00:04.65    frame= 1619 fps=313 q=31.0 size=    7168KiB time=00:00:26.98 bitrate=2176.2kbits/s speed=5.22x elapsed=0:00:05.17    frame= 1759 fps=309 q=31.0 size=    7680KiB time=00:00:29.31 bitrate=2146.0kbits/s speed=5.16x elapsed=0:00:05.68    frame= 1945 fps=313 q=31.0 size=    8448KiB time=00:00:32.43 bitrate=2133.8kbits/s speed=5.22x elapsed=0:00:06.21    frame= 2108 fps=312 q=31.0 size=    9216KiB time=00:00:35.13 bitrate=2148.9kbits/s speed=5.21x elapsed=0:00:06.74    frame= 2267 fps=312 q=31.0 size=    9728KiB time=00:00:37.76 bitrate=2110.1kbits/s speed= 5.2x elapsed=0:00:07.26    frame= 2435 fps=313 q=31.0 size=   10496KiB time=00:00:40.58 bitrate=2118.7kbits/s speed=5.22x elapsed=0:00:07.77    frame= 2595 fps=313 q=31.0 size=   11520KiB time=00:00:43.25 bitrate=2182.0kbits/s speed=5.21x elapsed=0:00:08.29    frame= 2805 fps=319 q=31.0 size=   12288KiB time=00:00:46.75 bitrate=2153.2kbits/s speed=5.31x elapsed=0:00:08.80    frame= 3014 fps=324 q=31.0 size=   13312KiB time=00:00:50.23 bitrate=2170.9kbits/s speed=5.39x elapsed=0:00:09.31    [out#0/mp4 @ 000002173a5cf700] video:12429KiB audio:1236KiB subtitle:0KiB other streams:0KiB global headers:0KiB muxing overhead: 0.598220%
frame= 3108 fps=328 q=-1.0 Lsize=   13747KiB time=00:00:51.80 bitrate=2174.0kbits/s speed=5.46x elapsed=0:00:09.48    
[libx264 @ 000002173c5bcb00] frame I:17    Avg QP:19.06  size: 63426
[libx264 @ 000002173c5bcb00] frame P:954   Avg QP:21.82  size:  8980
[libx264 @ 000002173c5bcb00] frame B:2137  Avg QP:24.90  size:  1442
[libx264 @ 000002173c5bcb00] consecutive B-frames:  3.3% 14.4%  1.8% 80.4%
[libx264 @ 000002173c5bcb00] mb I  I16..4: 15.5% 69.1% 15.3%
[libx264 @ 000002173c5bcb00] mb P  I16..4:  2.2%  4.0%  0.1%  P16..4: 28.5%  2.2%  1.5%  0.0%  0.0%    skip:61.5%
[libx264 @ 000002173c5bcb00] mb B  I16..4:  0.1%  0.1%  0.0%  B16..8: 17.3%  0.1%  0.0%  direct: 0.1%  skip:82.3%  L0:40.6% L1:59.0% BI: 0.3%
[libx264 @ 000002173c5bcb00] 8x8 transform intra:63.9% inter:88.1%
[libx264 @ 000002173c5bcb00] coded y,uvDC,uvAC intra: 22.4% 37.6% 7.1% inter: 1.4% 3.2% 0.0%
[libx264 @ 000002173c5bcb00] i16 v,h,dc,p: 30% 38%  6% 26%
[libx264 @ 000002173c5bcb00] i8 v,h,dc,ddl,ddr,vr,hd,vl,hu: 26% 19% 30%  3%  5%  5%  5%  4%  3%
[libx264 @ 000002173c5bcb00] i4 v,h,dc,ddl,ddr,vr,hd,vl,hu: 29% 22%  9%  6%  8%  9%  7%  7%  5%
[libx264 @ 000002173c5bcb00] i8c dc,h,v,p: 55% 20% 18%  7%
[libx264 @ 000002173c5bcb00] Weighted P-Frames: Y:0.1% UV:0.0%
[libx264 @ 000002173c5bcb00] ref P L0: 72.8%  6.4% 15.9%  4.8%
[libx264 @ 000002173c5bcb00] ref B L0: 90.5%  8.1%  1.4%
[libx264 @ 000002173c5bcb00] ref B L1: 97.8%  2.2%
[libx264 @ 000002173c5bcb00] kb/s:1965.56
[aac @ 000002173c524980] Qavg: 700.116
ffmpeg version 8.1.1-full_build-www.gyan.dev Copyright (c) 2000-2026 the FFmpeg developers
  built with gcc 15.2.0 (Rev13, Built by MSYS2 project)
  configuration: --enable-gpl --enable-version3 --enable-static --disable-w32threads --disable-autodetect --enable-cairo --enable-fontconfig --enable-iconv --enable-gnutls --enable-lcms2 --enable-libxml2 --enable-gmp --enable-bzlib --enable-lzma --enable-libsnappy --enable-zlib --enable-librist --enable-libsrt --enable-libssh --enable-libzmq --enable-avisynth --enable-libbluray --enable-libcaca --enable-libdvdnav --enable-libdvdread --enable-sdl2 --enable-libaribb24 --enable-libaribcaption --enable-libdav1d --enable-libdavs2 --enable-libopenjpeg --enable-libquirc --enable-libuavs3d --enable-libxevd --enable-libzvbi --enable-liboapv --enable-libqrencode --enable-librav1e --enable-libsvtav1 --enable-libvvenc --enable-libwebp --enable-libx264 --enable-libx265 --enable-libxavs2 --enable-libxeve --enable-libxvid --enable-libaom --enable-libjxl --enable-libsvtjpegxs --enable-libvpx --enable-mediafoundation --enable-libass --enable-frei0r --enable-libfreetype --enable-libfribidi --enable-libharfbuzz --enable-liblensfun --enable-libvidstab --enable-libvmaf --enable-libzimg --enable-amf --enable-cuda-llvm --enable-cuvid --enable-dxva2 --enable-d3d11va --enable-d3d12va --enable-ffnvcodec --enable-libvpl --enable-nvdec --enable-nvenc --enable-vaapi --enable-libshaderc --enable-vulkan --enable-libplacebo --enable-opencl --enable-libcdio --enable-openal --enable-libgme --enable-libmodplug --enable-libopenmpt --enable-libopencore-amrwb --enable-libmp3lame --enable-libshine --enable-libtheora --enable-libtwolame --enable-libvo-amrwbenc --enable-libcodec2 --enable-libilbc --enable-libgsm --enable-liblc3 --enable-libopencore-amrnb --enable-libopus --enable-libspeex --enable-libvorbis --enable-ladspa --enable-libbs2b --enable-libflite --enable-libmysofa --enable-librubberband --enable-libsoxr --enable-chromaprint --enable-whisper
  libavutil      60. 26.101 / 60. 26.101
  libavcodec     62. 28.101 / 62. 28.101
  libavformat    62. 12.101 / 62. 12.101
  libavdevice    62.  3.101 / 62.  3.101
  libavfilter    11. 14.101 / 11. 14.101
  libswscale      9.  5.101 /  9.  5.101
  libswresample   6.  3.101 /  6.  3.101
Input #0, mov,mp4,m4a,3gp,3g2,mj2, from 'D:\PythonProjects\viral-cutter-ai\benchmarks\runs\20260510_171633\roman_giertych_commentary\compare_podcast\cuts_raw\segment_2_00-53_90_01-26_86.mp4':
  Metadata:
    major_brand     : isom
    minor_version   : 512
    compatible_brands: isomiso2avc1mp41
    encoder         : Lavf62.12.101
  Duration: 00:00:32.96, start: 0.000000, bitrate: 3829 kb/s
  Stream #0:0[0x1](und): Video: h264 (High) (avc1 / 0x31637661), yuvj420p(pc, bt470bg/unknown/unknown, progressive), 1080x1920 [SAR 1:1 DAR 9:16], 3628 kb/s, 60 fps, 60 tbr, 15360 tbn, start 0.033008 (default)
    Metadata:
      handler_name    : VideoHandler
      encoder         : Lavc62.28.101 libx264
  Stream #0:1[0x2](eng): Audio: aac (LC) (mp4a / 0x6134706D), 48000 Hz, stereo, fltp, 193 kb/s (default)
    Metadata:
      handler_name    : SoundHandler
[Parsed_ass_0 @ 00000259f97f0500] libass API version: 0x1704000
[Parsed_ass_0 @ 00000259f97f0500] libass source: commit: 0.17.4-27-g1cbba0a8818c83495114b3c2b5730410eecbdb2c
[Parsed_ass_0 @ 00000259f97f0500] Shaper: FriBidi 1.0.16 (SIMPLE) HarfBuzz-ng 14.2.0 (COMPLEX)
[Parsed_ass_0 @ 00000259f97f0500] Using font provider directwrite (with GDI)
[Parsed_ass_0 @ 00000259f97f0500] Added subtitle file: 'D:\PythonProjects\viral-cutter-ai\benchmarks\runs\20260510_171633\roman_giertych_commentary\compare_podcast\cuts_raw\segment_2_00-53_90_01-26_86.ass' (6 styles, 7 events)
Stream mapping:
  Stream #0:0 -> #0:0 (h264 (native) -> h264 (libx264))
  Stream #0:1 -> #0:1 (aac (native) -> aac (native))
Press [q] to stop, [?] for help
[Parsed_ass_0 @ 00000259f97f0940] libass API version: 0x1704000
[Parsed_ass_0 @ 00000259f97f0940] libass source: commit: 0.17.4-27-g1cbba0a8818c83495114b3c2b5730410eecbdb2c
[Parsed_ass_0 @ 00000259f97f0940] Shaper: FriBidi 1.0.16 (SIMPLE) HarfBuzz-ng 14.2.0 (COMPLEX)
[Parsed_ass_0 @ 00000259f97f0940] Using font provider directwrite (with GDI)
[Parsed_ass_0 @ 00000259f97f0940] Added subtitle file: 'D:\PythonProjects\viral-cutter-ai\benchmarks\runs\20260510_171633\roman_giertych_commentary\compare_podcast\cuts_raw\segment_2_00-53_90_01-26_86.ass' (6 styles, 7 events)
[Parsed_ass_0 @ 00000259f97f0940] fontselect: (Arial Black, 400, 0) -> Arial-Black, 0, Arial-Black
[libx264 @ 00000259f97f14c0] using SAR=1/1
[libx264 @ 00000259f97f14c0] using cpu capabilities: MMX2 SSE2Fast SSSE3 SSE4.2 AVX FMA3 BMI2 AVX2 AVX512
[libx264 @ 00000259f97f14c0] profile High, level 4.2, 4:2:0, 8-bit
[libx264 @ 00000259f97f14c0] 264 - core 165 r3223 0480cb0 - H.264/MPEG-4 AVC codec - Copyleft 2003-2025 - http://www.videolan.org/x264.html - options: cabac=1 ref=3 deblock=1:0:0 analyse=0x3:0x113 me=hex subme=7 psy=1 psy_rd=1.00:0.00 mixed_ref=1 me_range=16 chroma_me=1 trellis=1 8x8dct=1 cqm=0 deadzone=21,11 fast_pskip=1 chroma_qp_offset=-2 threads=24 lookahead_threads=4 sliced_threads=0 nr=0 decimate=1 interlaced=0 bluray_compat=0 constrained_intra=0 bframes=3 b_pyramid=2 b_adapt=1 b_bias=0 direct=1 weightb=1 open_gop=0 weightp=2 keyint=250 keyint_min=25 scenecut=40 intra_refresh=0 rc_lookahead=40 rc=crf mbtree=1 crf=23.0 qcomp=0.60 qpmin=0 qpmax=69 qpstep=4 ip_ratio=1.40 aq=1:1.00
Output #0, mp4, to 'D:\PythonProjects\viral-cutter-ai\benchmarks\runs\20260510_171633\roman_giertych_commentary\compare_podcast\cuts_subtitles\segment_2_00-53_90_01-26_86.mp4':
  Metadata:
    major_brand     : isom
    minor_version   : 512
    compatible_brands: isomiso2avc1mp41
    encoder         : Lavf62.12.101
  Stream #0:0(und): Video: h264 (avc1 / 0x31637661), yuvj420p(pc, bt470bg/unknown/unknown, progressive), 1080x1920 [SAR 1:1 DAR 9:16], q=2-31, 60 fps, 15360 tbn (default)
    Metadata:
      encoder         : Lavc62.28.101 libx264
      handler_name    : VideoHandler
    Side data:
      CPB properties: bitrate max/min/avg: 0/0/0 buffer size: 0 vbv_delay: N/A
  Stream #0:1(eng): Audio: aac (LC) (mp4a / 0x6134706D), 48000 Hz, stereo, fltp, 192 kb/s (default)
    Metadata:
      encoder         : Lavc62.28.101 aac
      handler_name    : SoundHandler
frame=  116 fps=0.0 q=31.0 size=     256KiB time=00:00:01.93 bitrate=1084.9kbits/s speed=3.74x elapsed=0:00:00.51    frame=  249 fps=241 q=31.0 size=    1024KiB time=00:00:04.15 bitrate=2021.4kbits/s speed=4.01x elapsed=0:00:01.03    frame=  380 fps=245 q=31.0 size=    2048KiB time=00:00:06.33 bitrate=2649.1kbits/s speed=4.09x elapsed=0:00:01.54    frame=  506 fps=244 q=31.0 size=    2816KiB time=00:00:08.43 bitrate=2735.5kbits/s speed=4.07x elapsed=0:00:02.07    frame=  630 fps=244 q=31.0 size=    3840KiB time=00:00:10.50 bitrate=2996.0kbits/s speed=4.07x elapsed=0:00:02.58    frame=  878 fps=284 q=31.0 size=    4608KiB time=00:00:14.63 bitrate=2579.7kbits/s speed=4.73x elapsed=0:00:03.09    frame= 1040 fps=288 q=31.0 size=    5376KiB time=00:00:17.33 bitrate=2540.8kbits/s speed=4.79x elapsed=0:00:03.61    frame= 1139 fps=276 q=31.0 size=    6656KiB time=00:00:18.98 bitrate=2872.3kbits/s speed= 4.6x elapsed=0:00:04.12    frame= 1232 fps=266 q=31.0 size=    8448KiB time=00:00:20.53 bitrate=3370.4kbits/s speed=4.43x elapsed=0:00:04.63    frame= 1335 fps=259 q=31.0 size=    9984KiB time=00:00:22.25 bitrate=3675.9kbits/s speed=4.32x elapsed=0:00:05.15    frame= 1537 fps=271 q=31.0 size=   11008KiB time=00:00:25.61 bitrate=3520.3kbits/s speed=4.51x elapsed=0:00:05.67    frame= 1753 fps=283 q=31.0 size=   11776KiB time=00:00:29.21 bitrate=3301.9kbits/s speed=4.72x elapsed=0:00:06.18    frame= 1945 fps=290 q=31.0 size=   12544KiB time=N/A bitrate=N/A speed=N/A elapsed=0:00:06.69    [out#0/mp4 @ 00000259f9770e40] video:12025KiB audio:778KiB subtitle:0KiB other streams:0KiB global headers:0KiB muxing overhead: 0.407363%
frame= 1975 fps=292 q=-1.0 Lsize=   12855KiB time=00:00:32.91 bitrate=3199.3kbits/s speed=4.87x elapsed=0:00:06.75    
[libx264 @ 00000259f97f14c0] frame I:11    Avg QP:18.85  size: 46993
[libx264 @ 00000259f97f14c0] frame P:680   Avg QP:22.82  size: 13406
[libx264 @ 00000259f97f14c0] frame B:1284  Avg QP:23.35  size:  2087
[libx264 @ 00000259f97f14c0] consecutive B-frames:  4.9% 23.7%  5.0% 66.4%
[libx264 @ 00000259f97f14c0] mb I  I16..4: 15.0% 76.4%  8.5%
[libx264 @ 00000259f97f14c0] mb P  I16..4:  2.9%  9.0%  0.3%  P16..4: 36.4%  3.3%  1.4%  0.0%  0.0%    skip:46.6%
[libx264 @ 00000259f97f14c0] mb B  I16..4:  0.2%  0.5%  0.0%  B16..8: 16.4%  0.3%  0.0%  direct: 0.6%  skip:81.9%  L0:40.2% L1:59.1% BI: 0.7%
[libx264 @ 00000259f97f14c0] 8x8 transform intra:73.2% inter:87.0%
[libx264 @ 00000259f97f14c0] coded y,uvDC,uvAC intra: 20.2% 29.8% 3.6% inter: 3.3% 3.7% 0.1%
[libx264 @ 00000259f97f14c0] i16 v,h,dc,p: 28% 29%  8% 35%
[libx264 @ 00000259f97f14c0] i8 v,h,dc,ddl,ddr,vr,hd,vl,hu: 32% 18% 27%  3%  5%  4%  5%  3%  3%
[libx264 @ 00000259f97f14c0] i4 v,h,dc,ddl,ddr,vr,hd,vl,hu: 24% 27% 12%  5%  7%  7%  8%  5%  5%
[libx264 @ 00000259f97f14c0] i8c dc,h,v,p: 63% 19% 15%  4%
[libx264 @ 00000259f97f14c0] Weighted P-Frames: Y:2.8% UV:1.0%
[libx264 @ 00000259f97f14c0] ref P L0: 76.3% 11.3%  9.4%  2.9%  0.0%
[libx264 @ 00000259f97f14c0] ref B L0: 91.4%  7.4%  1.2%
[libx264 @ 00000259f97f14c0] ref B L1: 99.1%  0.9%
[libx264 @ 00000259f97f14c0] kb/s:2992.55
[aac @ 00000259fb79b2c0] Qavg: 1571.460
ffmpeg version 8.1.1-full_build-www.gyan.dev Copyright (c) 2000-2026 the FFmpeg developers
  built with gcc 15.2.0 (Rev13, Built by MSYS2 project)
  configuration: --enable-gpl --enable-version3 --enable-static --disable-w32threads --disable-autodetect --enable-cairo --enable-fontconfig --enable-iconv --enable-gnutls --enable-lcms2 --enable-libxml2 --enable-gmp --enable-bzlib --enable-lzma --enable-libsnappy --enable-zlib --enable-librist --enable-libsrt --enable-libssh --enable-libzmq --enable-avisynth --enable-libbluray --enable-libcaca --enable-libdvdnav --enable-libdvdread --enable-sdl2 --enable-libaribb24 --enable-libaribcaption --enable-libdav1d --enable-libdavs2 --enable-libopenjpeg --enable-libquirc --enable-libuavs3d --enable-libxevd --enable-libzvbi --enable-liboapv --enable-libqrencode --enable-librav1e --enable-libsvtav1 --enable-libvvenc --enable-libwebp --enable-libx264 --enable-libx265 --enable-libxavs2 --enable-libxeve --enable-libxvid --enable-libaom --enable-libjxl --enable-libsvtjpegxs --enable-libvpx --enable-mediafoundation --enable-libass --enable-frei0r --enable-libfreetype --enable-libfribidi --enable-libharfbuzz --enable-liblensfun --enable-libvidstab --enable-libvmaf --enable-libzimg --enable-amf --enable-cuda-llvm --enable-cuvid --enable-dxva2 --enable-d3d11va --enable-d3d12va --enable-ffnvcodec --enable-libvpl --enable-nvdec --enable-nvenc --enable-vaapi --enable-libshaderc --enable-vulkan --enable-libplacebo --enable-opencl --enable-libcdio --enable-openal --enable-libgme --enable-libmodplug --enable-libopenmpt --enable-libopencore-amrwb --enable-libmp3lame --enable-libshine --enable-libtheora --enable-libtwolame --enable-libvo-amrwbenc --enable-libcodec2 --enable-libilbc --enable-libgsm --enable-liblc3 --enable-libopencore-amrnb --enable-libopus --enable-libspeex --enable-libvorbis --enable-ladspa --enable-libbs2b --enable-libflite --enable-libmysofa --enable-librubberband --enable-libsoxr --enable-chromaprint --enable-whisper
  libavutil      60. 26.101 / 60. 26.101
  libavcodec     62. 28.101 / 62. 28.101
  libavformat    62. 12.101 / 62. 12.101
  libavdevice    62.  3.101 / 62.  3.101
  libavfilter    11. 14.101 / 11. 14.101
  libswscale      9.  5.101 /  9.  5.101
  libswresample   6.  3.101 /  6.  3.101
Input #0, mov,mp4,m4a,3gp,3g2,mj2, from 'D:\PythonProjects\viral-cutter-ai\benchmarks\runs\20260510_171633\roman_giertych_commentary\compare_podcast\cuts_raw\segment_3_11-14_48_11-53_92.mp4':
  Metadata:
    major_brand     : isom
    minor_version   : 512
    compatible_brands: isomiso2avc1mp41
    encoder         : Lavf62.12.101
  Duration: 00:00:39.45, start: 0.000000, bitrate: 2438 kb/s
  Stream #0:0[0x1](und): Video: h264 (High) (avc1 / 0x31637661), yuvj420p(pc, bt470bg/unknown/unknown, progressive), 1080x1920 [SAR 1:1 DAR 9:16], 2233 kb/s, 60 fps, 60 tbr, 15360 tbn, start 0.033008 (default)
    Metadata:
      handler_name    : VideoHandler
      encoder         : Lavc62.28.101 libx264
  Stream #0:1[0x2](eng): Audio: aac (LC) (mp4a / 0x6134706D), 48000 Hz, stereo, fltp, 193 kb/s (default)
    Metadata:
      handler_name    : SoundHandler
[Parsed_ass_0 @ 0000020ec3abd880] libass API version: 0x1704000
[Parsed_ass_0 @ 0000020ec3abd880] libass source: commit: 0.17.4-27-g1cbba0a8818c83495114b3c2b5730410eecbdb2c
[Parsed_ass_0 @ 0000020ec3abd880] Shaper: FriBidi 1.0.16 (SIMPLE) HarfBuzz-ng 14.2.0 (COMPLEX)
[Parsed_ass_0 @ 0000020ec3abd880] Using font provider directwrite (with GDI)
[Parsed_ass_0 @ 0000020ec3abd880] Added subtitle file: 'D:\PythonProjects\viral-cutter-ai\benchmarks\runs\20260510_171633\roman_giertych_commentary\compare_podcast\cuts_raw\segment_3_11-14_48_11-53_92.ass' (7 styles, 11 events)
Stream mapping:
  Stream #0:0 -> #0:0 (h264 (native) -> h264 (libx264))
  Stream #0:1 -> #0:1 (aac (native) -> aac (native))
Press [q] to stop, [?] for help
[Parsed_ass_0 @ 0000020ec3abd240] libass API version: 0x1704000
[Parsed_ass_0 @ 0000020ec3abd240] libass source: commit: 0.17.4-27-g1cbba0a8818c83495114b3c2b5730410eecbdb2c
[Parsed_ass_0 @ 0000020ec3abd240] Shaper: FriBidi 1.0.16 (SIMPLE) HarfBuzz-ng 14.2.0 (COMPLEX)
[Parsed_ass_0 @ 0000020ec3abd240] Using font provider directwrite (with GDI)
[Parsed_ass_0 @ 0000020ec3abd240] Added subtitle file: 'D:\PythonProjects\viral-cutter-ai\benchmarks\runs\20260510_171633\roman_giertych_commentary\compare_podcast\cuts_raw\segment_3_11-14_48_11-53_92.ass' (7 styles, 11 events)
[Parsed_ass_0 @ 0000020ec3abd240] fontselect: (Arial Black, 400, 0) -> Arial-Black, 0, Arial-Black
[libx264 @ 0000020ec3abe200] using SAR=1/1
[libx264 @ 0000020ec3abe200] using cpu capabilities: MMX2 SSE2Fast SSSE3 SSE4.2 AVX FMA3 BMI2 AVX2 AVX512
[libx264 @ 0000020ec3abe200] profile High, level 4.2, 4:2:0, 8-bit
[libx264 @ 0000020ec3abe200] 264 - core 165 r3223 0480cb0 - H.264/MPEG-4 AVC codec - Copyleft 2003-2025 - http://www.videolan.org/x264.html - options: cabac=1 ref=3 deblock=1:0:0 analyse=0x3:0x113 me=hex subme=7 psy=1 psy_rd=1.00:0.00 mixed_ref=1 me_range=16 chroma_me=1 trellis=1 8x8dct=1 cqm=0 deadzone=21,11 fast_pskip=1 chroma_qp_offset=-2 threads=24 lookahead_threads=4 sliced_threads=0 nr=0 decimate=1 interlaced=0 bluray_compat=0 constrained_intra=0 bframes=3 b_pyramid=2 b_adapt=1 b_bias=0 direct=1 weightb=1 open_gop=0 weightp=2 keyint=250 keyint_min=25 scenecut=40 intra_refresh=0 rc_lookahead=40 rc=crf mbtree=1 crf=23.0 qcomp=0.60 qpmin=0 qpmax=69 qpstep=4 ip_ratio=1.40 aq=1:1.00
Output #0, mp4, to 'D:\PythonProjects\viral-cutter-ai\benchmarks\runs\20260510_171633\roman_giertych_commentary\compare_podcast\cuts_subtitles\segment_3_11-14_48_11-53_92.mp4':
  Metadata:
    major_brand     : isom
    minor_version   : 512
    compatible_brands: isomiso2avc1mp41
    encoder         : Lavf62.12.101
  Stream #0:0(und): Video: h264 (avc1 / 0x31637661), yuvj420p(pc, bt470bg/unknown/unknown, progressive), 1080x1920 [SAR 1:1 DAR 9:16], q=2-31, 60 fps, 15360 tbn (default)
    Metadata:
      encoder         : Lavc62.28.101 libx264
      handler_name    : VideoHandler
    Side data:
      CPB properties: bitrate max/min/avg: 0/0/0 buffer size: 0 vbv_delay: N/A
  Stream #0:1(eng): Audio: aac (LC) (mp4a / 0x6134706D), 48000 Hz, stereo, fltp, 192 kb/s (default)
    Metadata:
      encoder         : Lavc62.28.101 aac
      handler_name    : SoundHandler
frame=  118 fps=0.0 q=31.0 size=     256KiB time=00:00:01.96 bitrate=1066.5kbits/s speed=3.77x elapsed=0:00:00.52    frame=  289 fps=280 q=31.0 size=    1024KiB time=00:00:04.81 bitrate=1741.7kbits/s speed=4.67x elapsed=0:00:01.03    [Parsed_ass_0 @ 0000020ec3abd240] fontselect: (Arial Black, 700, 0) -> Arial-Black, 0, Arial-Black
frame=  456 fps=294 q=31.0 size=    1792KiB time=00:00:07.60 bitrate=1931.6kbits/s speed= 4.9x elapsed=0:00:01.55    frame=  614 fps=298 q=31.0 size=    2304KiB time=00:00:10.23 bitrate=1844.4kbits/s speed=4.97x elapsed=0:00:02.06    frame=  798 fps=309 q=31.0 size=    3072KiB time=00:00:13.30 bitrate=1892.2kbits/s speed=5.15x elapsed=0:00:02.58    frame=  963 fps=311 q=31.0 size=    3840KiB time=00:00:16.05 bitrate=1960.0kbits/s speed=5.18x elapsed=0:00:03.09    frame= 1145 fps=317 q=31.0 size=    4608KiB time=00:00:19.08 bitrate=1978.1kbits/s speed=5.28x elapsed=0:00:03.61    frame= 1406 fps=340 q=31.0 size=    5120KiB time=00:00:23.43 bitrate=1789.9kbits/s speed=5.67x elapsed=0:00:04.12    frame= 1600 fps=345 q=31.0 size=    5632KiB time=00:00:26.66 bitrate=1730.2kbits/s speed=5.75x elapsed=0:00:04.63    frame= 1766 fps=343 q=31.0 size=    6400KiB time=00:00:29.43 bitrate=1781.3kbits/s speed=5.71x elapsed=0:00:05.15    frame= 1975 fps=348 q=31.0 size=    6912KiB time=00:00:32.93 bitrate=1719.3kbits/s speed=5.81x elapsed=0:00:05.67    frame= 2185 fps=353 q=31.0 size=    7680KiB time=00:00:36.41 bitrate=1727.6kbits/s speed=5.89x elapsed=0:00:06.18    [out#0/mp4 @ 0000020ec3403240] video:7422KiB audio:938KiB subtitle:0KiB other streams:0KiB global headers:0KiB muxing overhead: 0.749302%
frame= 2364 fps=358 q=-1.0 Lsize=    8422KiB time=00:00:39.40 bitrate=1751.1kbits/s speed=5.97x elapsed=0:00:06.59    
[libx264 @ 0000020ec3abe200] frame I:11    Avg QP:18.47  size: 60615
[libx264 @ 0000020ec3abe200] frame P:719   Avg QP:21.18  size:  6933
[libx264 @ 0000020ec3abe200] frame B:1634  Avg QP:24.49  size:  1192
[libx264 @ 0000020ec3abe200] consecutive B-frames:  1.9% 17.3%  1.8% 79.0%
[libx264 @ 0000020ec3abe200] mb I  I16..4: 15.8% 69.6% 14.6%
[libx264 @ 0000020ec3abe200] mb P  I16..4:  1.9%  5.0%  0.1%  P16..4: 22.4%  1.6%  1.0%  0.0%  0.0%    skip:68.0%
[libx264 @ 0000020ec3abe200] mb B  I16..4:  0.1%  0.1%  0.0%  B16..8: 13.1%  0.1%  0.0%  direct: 0.4%  skip:86.2%  L0:44.5% L1:55.2% BI: 0.3%
[libx264 @ 0000020ec3abe200] 8x8 transform intra:70.1% inter:92.7%
[libx264 @ 0000020ec3abe200] coded y,uvDC,uvAC intra: 17.0% 29.4% 7.5% inter: 0.9% 2.9% 0.0%
[libx264 @ 0000020ec3abe200] i16 v,h,dc,p: 32% 39%  7% 23%
[libx264 @ 0000020ec3abe200] i8 v,h,dc,ddl,ddr,vr,hd,vl,hu: 27% 19% 36%  2%  3%  3%  3%  3%  2%
[libx264 @ 0000020ec3abe200] i4 v,h,dc,ddl,ddr,vr,hd,vl,hu: 28% 26% 10%  5%  7%  7%  7%  5%  5%
[libx264 @ 0000020ec3abe200] i8c dc,h,v,p: 61% 17% 17%  5%
[libx264 @ 0000020ec3abe200] Weighted P-Frames: Y:0.0% UV:0.0%
[libx264 @ 0000020ec3abe200] ref P L0: 71.4%  5.1% 17.8%  5.7%
[libx264 @ 0000020ec3abe200] ref B L0: 89.0%  9.4%  1.6%
[libx264 @ 0000020ec3abe200] ref B L1: 97.9%  2.1%
[libx264 @ 0000020ec3abe200] kb/s:1542.95
[aac @ 0000020ec3a23040] Qavg: 668.180
ffmpeg version 8.1.1-full_build-www.gyan.dev Copyright (c) 2000-2026 the FFmpeg developers
  built with gcc 15.2.0 (Rev13, Built by MSYS2 project)
  configuration: --enable-gpl --enable-version3 --enable-static --disable-w32threads --disable-autodetect --enable-cairo --enable-fontconfig --enable-iconv --enable-gnutls --enable-lcms2 --enable-libxml2 --enable-gmp --enable-bzlib --enable-lzma --enable-libsnappy --enable-zlib --enable-librist --enable-libsrt --enable-libssh --enable-libzmq --enable-avisynth --enable-libbluray --enable-libcaca --enable-libdvdnav --enable-libdvdread --enable-sdl2 --enable-libaribb24 --enable-libaribcaption --enable-libdav1d --enable-libdavs2 --enable-libopenjpeg --enable-libquirc --enable-libuavs3d --enable-libxevd --enable-libzvbi --enable-liboapv --enable-libqrencode --enable-librav1e --enable-libsvtav1 --enable-libvvenc --enable-libwebp --enable-libx264 --enable-libx265 --enable-libxavs2 --enable-libxeve --enable-libxvid --enable-libaom --enable-libjxl --enable-libsvtjpegxs --enable-libvpx --enable-mediafoundation --enable-libass --enable-frei0r --enable-libfreetype --enable-libfribidi --enable-libharfbuzz --enable-liblensfun --enable-libvidstab --enable-libvmaf --enable-libzimg --enable-amf --enable-cuda-llvm --enable-cuvid --enable-dxva2 --enable-d3d11va --enable-d3d12va --enable-ffnvcodec --enable-libvpl --enable-nvdec --enable-nvenc --enable-vaapi --enable-libshaderc --enable-vulkan --enable-libplacebo --enable-opencl --enable-libcdio --enable-openal --enable-libgme --enable-libmodplug --enable-libopenmpt --enable-libopencore-amrwb --enable-libmp3lame --enable-libshine --enable-libtheora --enable-libtwolame --enable-libvo-amrwbenc --enable-libcodec2 --enable-libilbc --enable-libgsm --enable-liblc3 --enable-libopencore-amrnb --enable-libopus --enable-libspeex --enable-libvorbis --enable-ladspa --enable-libbs2b --enable-libflite --enable-libmysofa --enable-librubberband --enable-libsoxr --enable-chromaprint --enable-whisper
  libavutil      60. 26.101 / 60. 26.101
  libavcodec     62. 28.101 / 62. 28.101
  libavformat    62. 12.101 / 62. 12.101
  libavdevice    62.  3.101 / 62.  3.101
  libavfilter    11. 14.101 / 11. 14.101
  libswscale      9.  5.101 /  9.  5.101
  libswresample   6.  3.101 /  6.  3.101
Input #0, mov,mp4,m4a,3gp,3g2,mj2, from 'D:\PythonProjects\viral-cutter-ai\benchmarks\runs\20260510_171633\roman_giertych_commentary\compare_podcast\cuts_raw\segment_4_04-13_30_04-54_70.mp4':
  Metadata:
    major_brand     : isom
    minor_version   : 512
    compatible_brands: isomiso2avc1mp41
    encoder         : Lavf62.12.101
  Duration: 00:00:41.41, start: 0.000000, bitrate: 3529 kb/s
  Stream #0:0[0x1](und): Video: h264 (High) (avc1 / 0x31637661), yuvj420p(pc, bt470bg/unknown/unknown, progressive), 1080x1920 [SAR 1:1 DAR 9:16], 3326 kb/s, 60 fps, 60 tbr, 15360 tbn, start 0.033008 (default)
    Metadata:
      handler_name    : VideoHandler
      encoder         : Lavc62.28.101 libx264
  Stream #0:1[0x2](eng): Audio: aac (LC) (mp4a / 0x6134706D), 48000 Hz, stereo, fltp, 193 kb/s (default)
    Metadata:
      handler_name    : SoundHandler
[Parsed_ass_0 @ 000002247bc11000] libass API version: 0x1704000
[Parsed_ass_0 @ 000002247bc11000] libass source: commit: 0.17.4-27-g1cbba0a8818c83495114b3c2b5730410eecbdb2c
[Parsed_ass_0 @ 000002247bc11000] Shaper: FriBidi 1.0.16 (SIMPLE) HarfBuzz-ng 14.2.0 (COMPLEX)
[Parsed_ass_0 @ 000002247bc11000] Using font provider directwrite (with GDI)
[Parsed_ass_0 @ 000002247bc11000] Added subtitle file: 'D:\PythonProjects\viral-cutter-ai\benchmarks\runs\20260510_171633\roman_giertych_commentary\compare_podcast\cuts_raw\segment_4_04-13_30_04-54_70.ass' (7 styles, 13 events)
Stream mapping:
  Stream #0:0 -> #0:0 (h264 (native) -> h264 (libx264))
  Stream #0:1 -> #0:1 (aac (native) -> aac (native))
Press [q] to stop, [?] for help
[Parsed_ass_0 @ 000002247bc0f8c0] libass API version: 0x1704000
[Parsed_ass_0 @ 000002247bc0f8c0] libass source: commit: 0.17.4-27-g1cbba0a8818c83495114b3c2b5730410eecbdb2c
[Parsed_ass_0 @ 000002247bc0f8c0] Shaper: FriBidi 1.0.16 (SIMPLE) HarfBuzz-ng 14.2.0 (COMPLEX)
[Parsed_ass_0 @ 000002247bc0f8c0] Using font provider directwrite (with GDI)
[Parsed_ass_0 @ 000002247bc0f8c0] Added subtitle file: 'D:\PythonProjects\viral-cutter-ai\benchmarks\runs\20260510_171633\roman_giertych_commentary\compare_podcast\cuts_raw\segment_4_04-13_30_04-54_70.ass' (7 styles, 13 events)
[Parsed_ass_0 @ 000002247bc0f8c0] fontselect: (Arial Black, 400, 0) -> Arial-Black, 0, Arial-Black
[Parsed_ass_0 @ 000002247bc0f8c0] fontselect: (Arial Black, 700, 0) -> Arial-Black, 0, Arial-Black
[libx264 @ 000002247e0872c0] using SAR=1/1
[libx264 @ 000002247e0872c0] using cpu capabilities: MMX2 SSE2Fast SSSE3 SSE4.2 AVX FMA3 BMI2 AVX2 AVX512
[libx264 @ 000002247e0872c0] profile High, level 4.2, 4:2:0, 8-bit
[libx264 @ 000002247e0872c0] 264 - core 165 r3223 0480cb0 - H.264/MPEG-4 AVC codec - Copyleft 2003-2025 - http://www.videolan.org/x264.html - options: cabac=1 ref=3 deblock=1:0:0 analyse=0x3:0x113 me=hex subme=7 psy=1 psy_rd=1.00:0.00 mixed_ref=1 me_range=16 chroma_me=1 trellis=1 8x8dct=1 cqm=0 deadzone=21,11 fast_pskip=1 chroma_qp_offset=-2 threads=24 lookahead_threads=4 sliced_threads=0 nr=0 decimate=1 interlaced=0 bluray_compat=0 constrained_intra=0 bframes=3 b_pyramid=2 b_adapt=1 b_bias=0 direct=1 weightb=1 open_gop=0 weightp=2 keyint=250 keyint_min=25 scenecut=40 intra_refresh=0 rc_lookahead=40 rc=crf mbtree=1 crf=23.0 qcomp=0.60 qpmin=0 qpmax=69 qpstep=4 ip_ratio=1.40 aq=1:1.00
Output #0, mp4, to 'D:\PythonProjects\viral-cutter-ai\benchmarks\runs\20260510_171633\roman_giertych_commentary\compare_podcast\cuts_subtitles\segment_4_04-13_30_04-54_70.mp4':
  Metadata:
    major_brand     : isom
    minor_version   : 512
    compatible_brands: isomiso2avc1mp41
    encoder         : Lavf62.12.101
  Stream #0:0(und): Video: h264 (avc1 / 0x31637661), yuvj420p(pc, bt470bg/unknown/unknown, progressive), 1080x1920 [SAR 1:1 DAR 9:16], q=2-31, 60 fps, 15360 tbn (default)
    Metadata:
      encoder         : Lavc62.28.101 libx264
      handler_name    : VideoHandler
    Side data:
      CPB properties: bitrate max/min/avg: 0/0/0 buffer size: 0 vbv_delay: N/A
  Stream #0:1(eng): Audio: aac (LC) (mp4a / 0x6134706D), 48000 Hz, stereo, fltp, 192 kb/s (default)
    Metadata:
      encoder         : Lavc62.28.101 aac
      handler_name    : SoundHandler
frame=   46 fps=0.0 q=31.0 size=     256KiB time=00:00:00.76 bitrate=2735.9kbits/s speed=1.48x elapsed=0:00:00.51    frame=  156 fps=152 q=31.0 size=    1280KiB time=00:00:02.60 bitrate=4033.1kbits/s speed=2.54x elapsed=0:00:01.02    frame=  273 fps=176 q=31.0 size=    2304KiB time=00:00:04.55 bitrate=4148.3kbits/s speed=2.93x elapsed=0:00:01.55    frame=  386 fps=187 q=31.0 size=    3328KiB time=00:00:06.43 bitrate=4237.8kbits/s speed=3.11x elapsed=0:00:02.06    frame=  549 fps=213 q=31.0 size=    4096KiB time=00:00:09.15 bitrate=3667.2kbits/s speed=3.54x elapsed=0:00:02.58    frame=  714 fps=231 q=31.0 size=    4864KiB time=00:00:11.90 bitrate=3348.4kbits/s speed=3.84x elapsed=0:00:03.09    frame=  861 fps=239 q=31.0 size=    5632KiB time=00:00:14.35 bitrate=3215.2kbits/s speed=3.98x elapsed=0:00:03.60    frame= 1013 fps=246 q=31.0 size=    6400KiB time=00:00:16.88 bitrate=3105.4kbits/s speed= 4.1x elapsed=0:00:04.12    frame= 1161 fps=250 q=31.0 size=    7168KiB time=00:00:19.35 bitrate=3034.7kbits/s speed=4.17x elapsed=0:00:04.63    frame= 1305 fps=253 q=31.0 size=    7936KiB time=00:00:21.75 bitrate=2989.1kbits/s speed=4.22x elapsed=0:00:05.15    frame= 1500 fps=264 q=31.0 size=    8704KiB time=00:00:25.00 bitrate=2852.1kbits/s speed=4.41x elapsed=0:00:05.67    frame= 1665 fps=269 q=31.0 size=    9216KiB time=00:00:27.75 bitrate=2720.6kbits/s speed=4.48x elapsed=0:00:06.18    frame= 1829 fps=273 q=31.0 size=    9728KiB time=00:00:30.48 bitrate=2614.3kbits/s speed=4.55x elapsed=0:00:06.70    frame= 2052 fps=284 q=31.0 size=   10496KiB time=00:00:34.20 bitrate=2514.1kbits/s speed=4.73x elapsed=0:00:07.22    frame= 2235 fps=289 q=31.0 size=   11264KiB time=00:00:37.25 bitrate=2477.2kbits/s speed=4.82x elapsed=0:00:07.73    frame= 2381 fps=288 q=31.0 size=   11776KiB time=00:00:39.68 bitrate=2431.0kbits/s speed=4.81x elapsed=0:00:08.25    [out#0/mp4 @ 000002247bb90840] video:11732KiB audio:978KiB subtitle:0KiB other streams:0KiB global headers:0KiB muxing overhead: 0.516343%
frame= 2482 fps=290 q=-1.0 Lsize=   12776KiB time=00:00:41.36 bitrate=2530.1kbits/s speed=4.83x elapsed=0:00:08.57    
[libx264 @ 000002247e0872c0] frame I:13    Avg QP:19.71  size: 57219
[libx264 @ 000002247e0872c0] frame P:842   Avg QP:22.28  size:  9614
[libx264 @ 000002247e0872c0] frame B:1627  Avg QP:24.76  size:  1951
[libx264 @ 000002247e0872c0] consecutive B-frames:  1.8% 31.4%  3.1% 63.7%
[libx264 @ 000002247e0872c0] mb I  I16..4: 19.1% 68.2% 12.7%
[libx264 @ 000002247e0872c0] mb P  I16..4:  5.1% 11.0%  0.1%  P16..4: 28.3%  1.9%  1.1%  0.0%  0.0%    skip:52.5%
[libx264 @ 000002247e0872c0] mb B  I16..4:  0.3%  0.5%  0.0%  B16..8: 19.0%  0.2%  0.0%  direct: 0.3%  skip:79.8%  L0:43.1% L1:56.4% BI: 0.5%
[libx264 @ 000002247e0872c0] 8x8 transform intra:67.4% inter:93.9%
[libx264 @ 000002247e0872c0] coded y,uvDC,uvAC intra: 13.7% 22.0% 2.9% inter: 1.4% 3.6% 0.0%
[libx264 @ 000002247e0872c0] i16 v,h,dc,p: 23% 34%  8% 35%
[libx264 @ 000002247e0872c0] i8 v,h,dc,ddl,ddr,vr,hd,vl,hu: 27% 19% 33%  3%  4%  4%  4%  3%  2%
[libx264 @ 000002247e0872c0] i4 v,h,dc,ddl,ddr,vr,hd,vl,hu: 28% 22% 11%  6%  8%  7%  8%  5%  5%
[libx264 @ 000002247e0872c0] i8c dc,h,v,p: 68% 15% 14%  3%
[libx264 @ 000002247e0872c0] Weighted P-Frames: Y:0.1% UV:0.0%
[libx264 @ 000002247e0872c0] ref P L0: 71.4%  5.5% 17.8%  5.3%  0.0%
[libx264 @ 000002247e0872c0] ref B L0: 89.5%  9.3%  1.3%
[libx264 @ 000002247e0872c0] ref B L1: 97.6%  2.4%
[libx264 @ 000002247e0872c0] kb/s:2323.26
[aac @ 000002247dc8c600] Qavg: 705.854
ffmpeg version 8.1.1-full_build-www.gyan.dev Copyright (c) 2000-2026 the FFmpeg developers
  built with gcc 15.2.0 (Rev13, Built by MSYS2 project)
  configuration: --enable-gpl --enable-version3 --enable-static --disable-w32threads --disable-autodetect --enable-cairo --enable-fontconfig --enable-iconv --enable-gnutls --enable-lcms2 --enable-libxml2 --enable-gmp --enable-bzlib --enable-lzma --enable-libsnappy --enable-zlib --enable-librist --enable-libsrt --enable-libssh --enable-libzmq --enable-avisynth --enable-libbluray --enable-libcaca --enable-libdvdnav --enable-libdvdread --enable-sdl2 --enable-libaribb24 --enable-libaribcaption --enable-libdav1d --enable-libdavs2 --enable-libopenjpeg --enable-libquirc --enable-libuavs3d --enable-libxevd --enable-libzvbi --enable-liboapv --enable-libqrencode --enable-librav1e --enable-libsvtav1 --enable-libvvenc --enable-libwebp --enable-libx264 --enable-libx265 --enable-libxavs2 --enable-libxeve --enable-libxvid --enable-libaom --enable-libjxl --enable-libsvtjpegxs --enable-libvpx --enable-mediafoundation --enable-libass --enable-frei0r --enable-libfreetype --enable-libfribidi --enable-libharfbuzz --enable-liblensfun --enable-libvidstab --enable-libvmaf --enable-libzimg --enable-amf --enable-cuda-llvm --enable-cuvid --enable-dxva2 --enable-d3d11va --enable-d3d12va --enable-ffnvcodec --enable-libvpl --enable-nvdec --enable-nvenc --enable-vaapi --enable-libshaderc --enable-vulkan --enable-libplacebo --enable-opencl --enable-libcdio --enable-openal --enable-libgme --enable-libmodplug --enable-libopenmpt --enable-libopencore-amrwb --enable-libmp3lame --enable-libshine --enable-libtheora --enable-libtwolame --enable-libvo-amrwbenc --enable-libcodec2 --enable-libilbc --enable-libgsm --enable-liblc3 --enable-libopencore-amrnb --enable-libopus --enable-libspeex --enable-libvorbis --enable-ladspa --enable-libbs2b --enable-libflite --enable-libmysofa --enable-librubberband --enable-libsoxr --enable-chromaprint --enable-whisper
  libavutil      60. 26.101 / 60. 26.101
  libavcodec     62. 28.101 / 62. 28.101
  libavformat    62. 12.101 / 62. 12.101
  libavdevice    62.  3.101 / 62.  3.101
  libavfilter    11. 14.101 / 11. 14.101
  libswscale      9.  5.101 /  9.  5.101
  libswresample   6.  3.101 /  6.  3.101
Input #0, mov,mp4,m4a,3gp,3g2,mj2, from 'D:\PythonProjects\viral-cutter-ai\benchmarks\runs\20260510_171633\roman_giertych_commentary\compare_podcast\cuts_raw\segment_5_13-39_04_14-30_56.mp4':
  Metadata:
    major_brand     : isom
    minor_version   : 512
    compatible_brands: isomiso2avc1mp41
    encoder         : Lavf62.12.101
  Duration: 00:00:51.52, start: 0.000000, bitrate: 2691 kb/s
  Stream #0:0[0x1](und): Video: h264 (High) (avc1 / 0x31637661), yuvj420p(pc, bt470bg/unknown/unknown, progressive), 1080x1920 [SAR 1:1 DAR 9:16], 2486 kb/s, 60 fps, 60 tbr, 15360 tbn, start 0.033008 (default)
    Metadata:
      handler_name    : VideoHandler
      encoder         : Lavc62.28.101 libx264
  Stream #0:1[0x2](eng): Audio: aac (LC) (mp4a / 0x6134706D), 48000 Hz, stereo, fltp, 194 kb/s (default)
    Metadata:
      handler_name    : SoundHandler
[Parsed_ass_0 @ 0000024626c31bc0] libass API version: 0x1704000
[Parsed_ass_0 @ 0000024626c31bc0] libass source: commit: 0.17.4-27-g1cbba0a8818c83495114b3c2b5730410eecbdb2c
[Parsed_ass_0 @ 0000024626c31bc0] Shaper: FriBidi 1.0.16 (SIMPLE) HarfBuzz-ng 14.2.0 (COMPLEX)
[Parsed_ass_0 @ 0000024626c31bc0] Using font provider directwrite (with GDI)
[Parsed_ass_0 @ 0000024626c31bc0] Added subtitle file: 'D:\PythonProjects\viral-cutter-ai\benchmarks\runs\20260510_171633\roman_giertych_commentary\compare_podcast\cuts_raw\segment_5_13-39_04_14-30_56.ass' (7 styles, 15 events)
Stream mapping:
  Stream #0:0 -> #0:0 (h264 (native) -> h264 (libx264))
  Stream #0:1 -> #0:1 (aac (native) -> aac (native))
Press [q] to stop, [?] for help
[Parsed_ass_0 @ 0000024626c31340] libass API version: 0x1704000
[Parsed_ass_0 @ 0000024626c31340] libass source: commit: 0.17.4-27-g1cbba0a8818c83495114b3c2b5730410eecbdb2c
[Parsed_ass_0 @ 0000024626c31340] Shaper: FriBidi 1.0.16 (SIMPLE) HarfBuzz-ng 14.2.0 (COMPLEX)
[Parsed_ass_0 @ 0000024626c31340] Using font provider directwrite (with GDI)
[Parsed_ass_0 @ 0000024626c31340] Added subtitle file: 'D:\PythonProjects\viral-cutter-ai\benchmarks\runs\20260510_171633\roman_giertych_commentary\compare_podcast\cuts_raw\segment_5_13-39_04_14-30_56.ass' (7 styles, 15 events)
[Parsed_ass_0 @ 0000024626c31340] fontselect: (Arial Black, 400, 0) -> Arial-Black, 0, Arial-Black
[libx264 @ 0000024626c7ea80] using SAR=1/1
[libx264 @ 0000024626c7ea80] using cpu capabilities: MMX2 SSE2Fast SSSE3 SSE4.2 AVX FMA3 BMI2 AVX2 AVX512
[libx264 @ 0000024626c7ea80] profile High, level 4.2, 4:2:0, 8-bit
[libx264 @ 0000024626c7ea80] 264 - core 165 r3223 0480cb0 - H.264/MPEG-4 AVC codec - Copyleft 2003-2025 - http://www.videolan.org/x264.html - options: cabac=1 ref=3 deblock=1:0:0 analyse=0x3:0x113 me=hex subme=7 psy=1 psy_rd=1.00:0.00 mixed_ref=1 me_range=16 chroma_me=1 trellis=1 8x8dct=1 cqm=0 deadzone=21,11 fast_pskip=1 chroma_qp_offset=-2 threads=24 lookahead_threads=4 sliced_threads=0 nr=0 decimate=1 interlaced=0 bluray_compat=0 constrained_intra=0 bframes=3 b_pyramid=2 b_adapt=1 b_bias=0 direct=1 weightb=1 open_gop=0 weightp=2 keyint=250 keyint_min=25 scenecut=40 intra_refresh=0 rc_lookahead=40 rc=crf mbtree=1 crf=23.0 qcomp=0.60 qpmin=0 qpmax=69 qpstep=4 ip_ratio=1.40 aq=1:1.00
Output #0, mp4, to 'D:\PythonProjects\viral-cutter-ai\benchmarks\runs\20260510_171633\roman_giertych_commentary\compare_podcast\cuts_subtitles\segment_5_13-39_04_14-30_56.mp4':
  Metadata:
    major_brand     : isom
    minor_version   : 512
    compatible_brands: isomiso2avc1mp41
    encoder         : Lavf62.12.101
  Stream #0:0(und): Video: h264 (avc1 / 0x31637661), yuvj420p(pc, bt470bg/unknown/unknown, progressive), 1080x1920 [SAR 1:1 DAR 9:16], q=2-31, 60 fps, 15360 tbn (default)
    Metadata:
      encoder         : Lavc62.28.101 libx264
      handler_name    : VideoHandler
    Side data:
      CPB properties: bitrate max/min/avg: 0/0/0 buffer size: 0 vbv_delay: N/A
  Stream #0:1(eng): Audio: aac (LC) (mp4a / 0x6134706D), 48000 Hz, stereo, fltp, 192 kb/s (default)
    Metadata:
      encoder         : Lavc62.28.101 aac
      handler_name    : SoundHandler
frame=  135 fps=0.0 q=31.0 size=     512KiB time=00:00:02.25 bitrate=1864.3kbits/s speed=4.36x elapsed=0:00:00.51    frame=  312 fps=303 q=31.0 size=    1280KiB time=00:00:05.21 bitrate=2010.1kbits/s speed=5.07x elapsed=0:00:01.02    frame=  505 fps=324 q=31.0 size=    2048KiB time=00:00:08.41 bitrate=1993.4kbits/s speed=5.41x elapsed=0:00:01.55    frame=  682 fps=329 q=31.0 size=    2560KiB time=00:00:11.36 bitrate=1845.0kbits/s speed=5.49x elapsed=0:00:02.07    frame=  870 fps=336 q=31.0 size=    3328KiB time=00:00:14.50 bitrate=1880.2kbits/s speed= 5.6x elapsed=0:00:02.58    frame= 1089 fps=351 q=31.0 size=    4096KiB time=00:00:18.15 bitrate=1848.8kbits/s speed=5.85x elapsed=0:00:03.10    frame= 1348 fps=371 q=31.0 size=    4608KiB time=00:00:22.46 bitrate=1680.2kbits/s speed=6.19x elapsed=0:00:03.62    frame= 1532 fps=370 q=31.0 size=    5376KiB time=00:00:25.53 bitrate=1724.8kbits/s speed=6.17x elapsed=0:00:04.13    [Parsed_ass_0 @ 0000024626c31340] fontselect: (Arial Black, 700, 0) -> Arial-Black, 0, Arial-Black
frame= 1745 fps=374 q=31.0 size=    6400KiB time=00:00:29.08 bitrate=1802.7kbits/s speed=6.24x elapsed=0:00:04.66    frame= 1956 fps=378 q=31.0 size=    7168KiB time=00:00:32.60 bitrate=1801.2kbits/s speed=6.29x elapsed=0:00:05.18    frame= 2145 fps=377 q=31.0 size=    7680KiB time=00:00:35.75 bitrate=1759.9kbits/s speed=6.28x elapsed=0:00:05.69    frame= 2326 fps=375 q=31.0 size=    8448KiB time=00:00:38.76 bitrate=1785.2kbits/s speed=6.25x elapsed=0:00:06.20    frame= 2521 fps=375 q=31.0 size=    9216KiB time=00:00:42.01 bitrate=1796.9kbits/s speed=6.25x elapsed=0:00:06.71    frame= 2704 fps=374 q=31.0 size=    9984KiB time=00:00:45.06 bitrate=1814.9kbits/s speed=6.23x elapsed=0:00:07.23    frame= 2884 fps=372 q=31.0 size=   10752KiB time=00:00:48.06 bitrate=1832.5kbits/s speed=6.19x elapsed=0:00:07.76    [out#0/mp4 @ 0000024626bb0e00] video:10266KiB audio:1220KiB subtitle:0KiB other streams:0KiB global headers:0KiB muxing overhead: 0.709099%
frame= 3089 fps=377 q=-1.0 Lsize=   11567KiB time=00:00:51.48 bitrate=1840.6kbits/s speed=6.28x elapsed=0:00:08.19    
[libx264 @ 0000024626c7ea80] frame I:15    Avg QP:18.60  size: 71374
[libx264 @ 0000024626c7ea80] frame P:943   Avg QP:21.67  size:  7747
[libx264 @ 0000024626c7ea80] frame B:2131  Avg QP:24.94  size:  1002
[libx264 @ 0000024626c7ea80] consecutive B-frames:  1.3% 19.4%  2.4% 76.9%
[libx264 @ 0000024626c7ea80] mb I  I16..4: 13.3% 65.8% 21.0%
[libx264 @ 0000024626c7ea80] mb P  I16..4:  1.2%  2.7%  0.2%  P16..4: 24.3%  2.1%  1.4%  0.0%  0.0%    skip:68.1%
[libx264 @ 0000024626c7ea80] mb B  I16..4:  0.0%  0.0%  0.0%  B16..8: 14.0%  0.0%  0.0%  direct: 0.0%  skip:85.8%  L0:42.6% L1:57.1% BI: 0.3%
[libx264 @ 0000024626c7ea80] 8x8 transform intra:65.4% inter:87.1%
[libx264 @ 0000024626c7ea80] coded y,uvDC,uvAC intra: 30.5% 31.6% 7.0% inter: 1.3% 2.2% 0.0%
[libx264 @ 0000024626c7ea80] i16 v,h,dc,p: 30% 38%  7% 25%
[libx264 @ 0000024626c7ea80] i8 v,h,dc,ddl,ddr,vr,hd,vl,hu: 28% 21% 24%  4%  5%  5%  5%  4%  4%
[libx264 @ 0000024626c7ea80] i4 v,h,dc,ddl,ddr,vr,hd,vl,hu: 25% 31%  8%  5%  7%  6%  8%  5%  5%
[libx264 @ 0000024626c7ea80] i8c dc,h,v,p: 61% 19% 15%  5%
[libx264 @ 0000024626c7ea80] Weighted P-Frames: Y:0.0% UV:0.0%
[libx264 @ 0000024626c7ea80] ref P L0: 71.0%  6.6% 17.0%  5.4%
[libx264 @ 0000024626c7ea80] ref B L0: 90.6%  8.2%  1.1%
[libx264 @ 0000024626c7ea80] ref B L1: 98.4%  1.6%
[libx264 @ 0000024626c7ea80] kb/s:1633.39
[aac @ 0000024628b1e740] Qavg: 659.919
Loading transcript: D:\PythonProjects\viral-cutter-ai\benchmarks\runs\20260510_171633\roman_giertych_commentary\shared\transcript.json
Found 5 cut videos

Processing: segment_1_19-09_66_20-01_48.mp4
Raw video already present: segment_1_19-09_66_20-01_48.mp4
  Adding subtitles: segment_1_19-09_66_20-01_48.mp4
Added subtitles: segment_1_19-09_66_20-01_48.mp4

Processing: segment_2_00-53_90_01-26_86.mp4
Raw video already present: segment_2_00-53_90_01-26_86.mp4
  Adding subtitles: segment_2_00-53_90_01-26_86.mp4
Added subtitles: segment_2_00-53_90_01-26_86.mp4

Processing: segment_3_11-14_48_11-53_92.mp4
Raw video already present: segment_3_11-14_48_11-53_92.mp4
  Adding subtitles: segment_3_11-14_48_11-53_92.mp4
Added subtitles: segment_3_11-14_48_11-53_92.mp4

Processing: segment_4_04-13_30_04-54_70.mp4
Raw video already present: segment_4_04-13_30_04-54_70.mp4
  Adding subtitles: segment_4_04-13_30_04-54_70.mp4
Added subtitles: segment_4_04-13_30_04-54_70.mp4

Processing: segment_5_13-39_04_14-30_56.mp4
Raw video already present: segment_5_13-39_04_14-30_56.mp4
  Adding subtitles: segment_5_13-39_04_14-30_56.mp4
Added subtitles: segment_5_13-39_04_14-30_56.mp4

Done!
  Raw videos: D:\PythonProjects\viral-cutter-ai\benchmarks\runs\20260510_171633\roman_giertych_commentary\compare_podcast\cuts_raw
  Subtitled videos: D:\PythonProjects\viral-cutter-ai\benchmarks\runs\20260510_171633\roman_giertych_commentary\compare_podcast\cuts_subtitles
$ D:\PythonProjects\viral-cutter-ai\.venv\Scripts\python.exe D:\PythonProjects\viral-cutter-ai\subtitler.py --transcript D:\PythonProjects\viral-cutter-ai\benchmarks\runs\20260510_171633\roman_giertych_commentary\shared\transcript.json --input-dir D:\PythonProjects\viral-cutter-ai\benchmarks\runs\20260510_171633\roman_giertych_commentary\compare_podcast\cuts_raw --output-raw D:\PythonProjects\viral-cutter-ai\benchmarks\runs\20260510_171633\roman_giertych_commentary\compare_podcast\cuts_raw --output-subs D:\PythonProjects\viral-cutter-ai\benchmarks\runs\20260510_171633\roman_giertych_commentary\compare_podcast\cuts_subtitles

